<?xml version="1.0" encoding="utf-8"?>
<svg version="1.1" xmlns:xlink="http://www.w3.org/1999/xlink" width="40px" height="40px" xmlns="http://www.w3.org/2000/svg">
  <g transform="matrix(1 0 0 1 -715 -465 )">
    <path d="M 735 465  C 746.2 465  755 473.8  755 485  C 755 496.2  746.2 505  735 505  C 723.8 505  715 496.2  715 485  C 715 473.8  723.8 465  735 465  Z " fill-rule="nonzero" fill="#ffffff" stroke="none" />
    <path d="M 735 465.5  C 745.92 465.5  754.5 474.08  754.5 485  C 754.5 495.92  745.92 504.5  735 504.5  C 724.08 504.5  715.5 495.92  715.5 485  C 715.5 474.08  724.08 465.5  735 465.5  Z " stroke-width="1" stroke="#797979" fill="none" />
  </g>
</svg>